# xmcd
#
# Track frame offsets:
#  150
#  19954
#  34389
#  49704
#  71478
#  90509
#  106320
#  119828
#  133953
#  154813
#  173697
#
# Disc length: 2479 seconds
#
# Revision: 0
# Processed by: cddbd v1.5.1PL2 Copyright (c) Steve Scherf et al.
# Submitted via: Collectorz.com_Music_Collector 6.9
#
DISCID=9909ad0b
DTITLE=Chris Cook - Small Town Gone
DYEAR=2004
DGENRE=
TTITLE0=The One That Got Away
TTITLE1=Small Town Gone
TTITLE2=Your Share Of Me
TTITLE3=Home
TTITLE4=Old Suede Coat
TTITLE5=How Good Can It Be
TTITLE6=I'll Be Alright
TTITLE7=Uncle Scam Blues
TTITLE8=Go Back To Sleep
TTITLE9=Old Guitar
TTITLE10=Growin' Up
EXTD=
EXTT0=
EXTT1=
EXTT2=
EXTT3=
EXTT4=
EXTT5=
EXTT6=
EXTT7=
EXTT8=
EXTT9=
EXTT10=
PLAYORDER=
